<!-- icon666.com - MILLIONS vector ICONS FREE --><svg id="Master_Line" enable-background="new 0 0 512 512" viewBox="0 0 512 512" xmlns="http://www.w3.org/2000/svg"><path d="m415.18 140.5-1.04.13c-35.65 19.47-93.2 32.11-158.15 32.11s-122.5-12.64-158.15-32.11l-1.04-.13c105.07 73.56 117.73 167.1 26.78 254.8-4.36 4.2-4.08 11.5.68 15.22 45.19 35.41 218.51 35.81 263.54.02 4.72-3.75 4.99-11 .64-15.19-90.99-87.71-78.34-181.28 26.74-254.85zm-184.58 176.73c-2.29 20.02-6.26 39.99-11.78 59.37l-4.54 15.93c-.44 1.54-1.84 2.54-3.36 2.54-.32 0-.64-.04-.96-.13-1.86-.53-2.94-2.47-2.41-4.33l4.54-15.93c5.42-19.01 9.31-38.61 11.56-58.25.22-1.92 1.96-3.31 3.88-3.08 1.91.22 3.29 1.96 3.07 3.88zm1.87-22.27c-.1 1.87-1.65 3.31-3.49 3.31-.06 0-.13 0-.19 0-1.93-.1-3.41-1.75-3.31-3.68 1.65-30.53-.57-61.2-6.59-91.17-.38-1.89.85-3.74 2.74-4.12s3.74.85 4.12 2.74c6.14 30.54 8.4 61.8 6.72 92.92zm49.88-69.71c1.05-7.75 2.36-15.56 3.9-23.22.38-1.9 2.22-3.12 4.12-2.74 1.89.38 3.12 2.23 2.74 4.12-1.51 7.51-2.8 15.18-3.83 22.78-.24 1.76-1.74 3.03-3.46 3.03-.16 0-.32-.01-.47-.03-1.92-.26-3.26-2.03-3-3.94zm19.7 169.69c-.32.09-.64.13-.96.13-1.52 0-2.93-1-3.36-2.54l-4.54-15.93c-11.55-40.55-16.09-82.45-13.48-124.54.12-1.93 1.76-3.39 3.71-3.28 1.93.12 3.4 1.78 3.28 3.71-2.56 41.29 1.89 82.4 13.23 122.19l4.54 15.93c.51 1.86-.56 3.8-2.42 4.33z" fill="#5cd1fd" style="fill: rgb(253, 93, 248);"></path><path d="m420.44 51.76c13.78 10.39 21.6 22.24 21.6 34.82 0 41.1-83.3 74.42-186.05 74.42s-186.04-33.31-186.04-74.41c0-12.59 7.83-24.44 21.62-34.84-19.91 12.27-31.49 26.9-31.49 42.62 0 43.28 87.72 78.37 195.92 78.37s195.92-35.09 195.92-78.37c0-15.71-11.57-30.34-31.48-42.61z" fill="#ebeced" style="fill: rgb(161, 90, 181);"></path><ellipse cx="256" cy="114.32" fill="#ebeced" rx="53.11" ry="15.05" style="fill: rgb(161, 90, 181);"></ellipse><path d="m420.44 375.03c13.78 10.39 21.6 22.24 21.6 34.82 0 41.1-83.3 74.42-186.05 74.42s-186.04-33.32-186.04-74.42c0-12.59 7.83-24.44 21.62-34.84-19.91 12.27-31.49 26.9-31.49 42.62 0 43.28 87.72 78.37 195.92 78.37s195.92-35.09 195.92-78.37c0-15.71-11.57-30.34-31.48-42.6z" fill="#ebeced" style="fill: rgb(161, 90, 181);"></path><g fill="#2a3853"><path d="m146.94 454.2c-27.65-11.06-43.51-25.97-43.51-40.9 0-1.93-1.57-3.5-3.5-3.5s-3.5 1.57-3.5 3.5c0 18.2 17.02 35.04 47.91 47.39 29.88 11.95 69.54 18.54 111.66 18.54s81.78-6.58 111.66-18.54c30.9-12.36 47.91-29.19 47.91-47.39 0-1.93-1.57-3.5-3.5-3.5s-3.5 1.57-3.5 3.5c0 14.93-15.86 29.83-43.51 40.9-29.08 11.63-67.81 18.04-109.06 18.04-41.26 0-79.99-6.41-109.06-18.04z" fill="#2a3853" style="fill: rgb(139, 43, 145);"></path><path d="m374.8 351.65c-1.85-.55-3.8.49-4.36 2.34s.49 3.8 2.34 4.36c47.36 14.28 75.64 36.43 75.64 59.28 0 19.12-20.11 38.14-55.18 52.16-36.6 14.64-85.34 22.7-137.24 22.7s-100.63-8.06-137.24-22.7c-35.07-14.03-55.18-33.04-55.18-52.16 0-22.61 27.82-44.63 74.42-58.91 1.85-.57 2.89-2.52 2.32-4.37s-2.52-2.89-4.37-2.32c-50.44 15.45-79.37 39.36-79.37 65.6 0 22.46 21.16 43.29 59.58 58.66 37.41 14.96 87.07 23.2 139.83 23.2s102.43-8.24 139.83-23.2c38.42-15.37 59.58-36.2 59.58-58.66.02-26.49-29.37-50.53-80.6-65.98z" fill="#2a3853" style="fill: rgb(139, 43, 145);"></path><path d="m116.17 153.03c37.41 14.96 87.07 23.2 139.83 23.2s102.43-8.24 139.83-23.2c38.42-15.37 59.58-36.2 59.58-58.66s-21.16-43.29-59.58-58.66c-37.4-14.97-87.06-23.21-139.83-23.21s-102.43 8.24-139.83 23.2c-38.42 15.37-59.58 36.2-59.58 58.66s21.15 43.3 59.58 58.67zm-45.17-38.52c10.39-5.47 21.38-9.61 32.68-12.38 6.39 19.73 37.03 36.49 83.39 45.3.22.04.44.06.66.06 1.65 0 3.12-1.17 3.43-2.85.36-1.9-.89-3.73-2.79-4.09-42.7-8.11-71.89-23.2-77.84-39.93 23.49-4.55 48.03-3.28 71.08 4.05l18.66 5.93c-.59 1.18-.9 2.41-.9 3.71 0 5.89 6.09 10.61 18.1 14.01 3.43.97 7.25 1.8 11.33 2.47-13.7 8.29-24.8 20.37-31.9 34.79-29.19-3.71-55.92-10.17-78.16-19.06-22.57-9.03-38.94-20.13-47.74-32.01zm185-11.74c13.87 0 26.87 1.52 36.6 4.28 10.67 3.03 13.01 6.28 13.01 7.28s-2.34 4.25-13.01 7.28c-9.73 2.76-22.73 4.28-36.6 4.28s-26.87-1.52-36.6-4.28c-10.67-3.03-13.01-6.28-13.01-7.28s2.34-4.25 13.01-7.28c9.73-2.77 22.73-4.28 36.6-4.28zm-51.67 63.71c2.89-5.42 6.39-10.45 10.44-15 13.35 1.4 27.22 2.11 41.22 2.11 7.52 0 15.08-.21 22.47-.61 1.93-.11 3.41-1.76 3.3-3.69s-1.72-3.38-3.69-3.3c-7.26.4-14.69.6-22.08.6-11.78 0-23.45-.51-34.79-1.52 5.36-4.75 11.38-8.78 17.94-11.9l1.31-.62c.16-.08.3-.17.44-.27 4.85.4 9.92.61 15.1.61 5.31 0 10.51-.22 15.48-.64.15.11.31.21.49.3l1.31.63c14.88 7.08 27.07 18.8 34.79 33.27-16.74 1.85-34.22 2.8-52.07 2.8-17.7-.02-35.04-.96-51.66-2.77zm244.09-72.11c0 19.12-20.11 38.14-55.18 52.16-22.14 8.86-48.72 15.3-77.75 19.01-2.65-5.38-5.86-10.44-9.56-15.09 43.62-5.66 78.61-18.68 94.25-35.2 1.33-1.4 1.27-3.62-.14-4.95s-3.62-1.27-4.95.14c-15.11 15.97-50.5 28.53-94.75 33.65-4.99-5.13-10.64-9.62-16.81-13.34 3.95-.66 7.65-1.47 10.99-2.42 12.01-3.4 18.1-8.12 18.1-14.01 0-1.25-.29-2.45-.84-3.59l19.03-6.05c31.49-10.01 65.75-8.83 96.47 3.32 1.8.71 3.83-.17 4.54-1.97s-.17-3.83-1.97-4.54c-6.63-2.62-13.42-4.75-20.31-6.39.01-.24.03-.49.03-.73 0-21.9-29.09-41.23-77.81-51.69-1.88-.41-3.75.8-4.16 2.69s.8 3.75 2.69 4.16c43.95 9.44 71.46 26.27 72.24 44.07-24.46-4.63-49.92-3.19-73.85 4.42l-22.43 7.13c-2.92-1.82-6.83-3.44-11.74-4.83-5.96-1.69-13.03-2.94-20.73-3.69l4.47-9.37c13.12-27.51 37.04-49.1 65.71-59.37 17.99 3.66 34.61 8.47 49.28 14.33 35.06 14.01 55.18 33.02 55.18 52.15zm-329.66-52.17c14.74-5.9 31.46-10.73 49.55-14.39 8.84 3.15 17.17 7.29 24.9 12.39-42.94 7.27-74.84 21.74-86.12 39.28-1.05 1.63-.58 3.79 1.05 4.84.59.38 1.24.56 1.89.56 1.15 0 2.28-.57 2.95-1.61 10.65-16.56 44.44-30.8 88.28-37.25 2.73 2.16 5.38 4.43 7.93 6.85.68.64 1.54.96 2.41.96.93 0 1.85-.37 2.54-1.09 1.33-1.4 1.27-3.62-.14-4.95-9.79-9.26-20.83-16.73-32.93-22.32 23.41-3.91 48.77-5.96 74.93-5.96 26.29 0 51.77 2.07 75.27 6.02-7.79 3.63-15.16 8.07-21.99 13.21-17.02-2.37-34.94-3.58-53.27-3.58-11.9 0-23.75.51-35.23 1.53-1.93.17-3.35 1.87-3.18 3.79s1.86 3.37 3.79 3.18c11.28-1 22.92-1.5 34.62-1.5 15.69 0 31.06.9 45.79 2.67-12.42 10.93-22.68 24.33-29.87 39.41l-5.63 11.82c-3.36-.18-6.8-.28-10.29-.28-3.35 0-6.65.09-9.87.26l-5.62-11.8c-3.87-8.12-8.64-15.82-14.18-22.9-1.19-1.52-3.39-1.79-4.91-.6s-1.79 3.39-.6 4.91c5.22 6.67 9.72 13.94 13.37 21.6l4.45 9.33c-7.86.75-15.08 2.01-21.15 3.73-4.83 1.37-8.69 2.96-11.6 4.74l-22.15-7.04c-25.21-8.01-52.13-9.11-77.71-3.59-.13.01-.26 0-.39.03-.27.05-.53.13-.77.23-13.03 2.92-25.7 7.56-37.62 13.89-2.42-4.68-3.67-9.44-3.67-14.2-.01-19.13 20.1-38.14 55.17-52.17z" fill="#2a3853" style="fill: rgb(139, 43, 145);"></path></g><g fill="#f46e94"><path d="m379.99 230.1c-1.33 0-2.6-.76-3.19-2.05-.8-1.76-.03-3.83 1.73-4.64l23.69-10.8c1.76-.8 3.83-.03 4.64 1.73.8 1.76.03 3.83-1.73 4.64l-23.69 10.8c-.47.22-.97.32-1.45.32z" fill="#f46e94" style="fill: rgb(143, 9, 170);"></path><path d="m399 321.48c-.55 0-1.11-.13-1.64-.41l-23-12.2c-1.71-.91-2.36-3.02-1.45-4.73s3.02-2.36 4.73-1.45l23 12.2c1.71.91 2.36 3.02 1.45 4.73-.63 1.19-1.84 1.86-3.09 1.86z" fill="#f46e94" style="fill: rgb(143, 9, 170);"></path><path d="m108.75 319.37c-1.24 0-2.44-.66-3.08-1.83-.92-1.7-.3-3.82 1.4-4.75l22.87-12.44c1.7-.92 3.82-.3 4.75 1.4.92 1.7.3 3.82-1.4 4.75l-22.87 12.44c-.53.29-1.1.43-1.67.43z" fill="#f46e94" style="fill: rgb(143, 9, 170);"></path><path d="m130.03 227.66c-.47 0-.96-.1-1.42-.3l-23.8-10.55c-1.77-.78-2.56-2.85-1.78-4.62s2.85-2.57 4.62-1.78l23.8 10.55c1.77.78 2.56 2.85 1.78 4.62-.58 1.31-1.86 2.08-3.2 2.08z" fill="#f46e94" style="fill: rgb(143, 9, 170);"></path></g></svg>